<svg xmlns="http://www.w3.org/2000/svg" width="51" height="65" stroke="#000" stroke-linecap="round" stroke-linejoin="round" fill="#fff" fill-rule="evenodd"><path d="M20.5853 36.4473v12.559c0 2.6136.4435 4.8855 1.3335 6.8157s2.0602 3.5339 3.5127 4.8109 3.0843 2.2427 4.8915 2.8959 3.6327.9797 5.4691.9797 3.6609-.3266 5.4691-.9797 3.4391-1.6188 4.8916-2.8959 2.6237-2.8807 3.5127-4.8109 1.3335-4.2031 1.3335-6.8157v-20.925l-16.2541-.0252-.0202 8.3912h7.2038v12.559c0 2.1973-.6078 3.8161-1.8143 4.8563s-2.6529 1.5593-4.314 1.5593-3.0974-.5201-4.314-1.5593-1.8143-2.658-1.8143-4.8563V15.5022c0-2.1973.6078-3.8161 1.8143-4.8563s2.6529-1.5593 4.314-1.5593 3.0974.5201 4.314 1.5593 1.8143 2.659 1.8143 4.8563v3.2073H51v-3.2073c0-2.5541-.4435-4.8109-1.3335-6.7714s-2.0603-3.5782-3.5127-4.8563-3.0843-2.2416-4.8905-2.8968S37.6296 0 35.7921 0s-3.6608.3266-5.4691.9797-3.4391 1.6188-4.8915 2.8958-2.6237 2.8959-3.5127 4.8563-1.3335 4.2173-1.3335 6.7714v12.559h-9.2802v-9.3537h2.8464L7.0758 8.7097 0 18.7085h2.9432v13.5457c0 2.3163 1.8718 4.1931 4.183 4.1931h13.4611z" stroke="none"/></svg>